<svg width="514" height="513" xmlns="http://www.w3.org/2000/svg" xmlns:xlink="http://www.w3.org/1999/xlink" xml:space="preserve" overflow="hidden"><g transform="translate(-798 -337)"><g><g><g><g><path d="M1170.8 549.8 1042.8 677.8C1037.3 683.3 1030.2 686 1023 686 1015.8 686 1008.66 683.281 1003.19 677.812L939.19 613.812C928.28 602.872 928.28 585.122 939.19 574.182 950.13 563.242 967.88 563.242 978.82 574.182L1023 618.4 1131.2 510.2C1142.14 499.26 1159.89 499.26 1170.83 510.2 1181.7 521.1 1181.7 538.9 1170.8 549.8Z" fill="#4EA72E" fill-rule="nonzero" fill-opacity="1"/><path d="M1055 338C913.6 338 799 452.6 799 594 799 735.4 913.6 850 1055 850 1196.4 850 1311 735.4 1311 594 1311 452.6 1196.4 338 1055 338ZM1170.8 549.8 1042.8 677.8C1037.3 683.3 1030.2 686 1023 686 1015.8 686 1008.66 683.281 1003.19 677.812L939.19 613.812C928.28 602.872 928.28 585.122 939.19 574.182 950.13 563.242 967.88 563.242 978.82 574.182L1023 618.4 1131.2 510.2C1142.14 499.26 1159.89 499.26 1170.83 510.2 1181.7 521.1 1181.7 538.9 1170.8 549.8Z" fill="#4EA72E" fill-rule="nonzero" fill-opacity="0.4"/></g></g></g></g></g></svg>